<?xml version="1.0" encoding="UTF-8"?>
<svg id="Layer_1" data-name="Layer 1" xmlns="http://www.w3.org/2000/svg" viewBox="0 0 200 200">
  <defs>
    <style>
      .cls-1 {
        stroke-width: 9.75px;
      }

      .cls-1, .cls-2 {
        fill: #caf0f8;
        stroke: #256d85;
        stroke-miterlimit: 10;
      }

      .cls-2 {
        stroke-width: 9.75px;
      }

      .cls-3 {
        fill: #256d85;
      }
    </style>
  </defs>
  <g id="icon_corporatif_group" data-name="icon corporatif/group">
    <g>
      <ellipse class="cls-2" cx="146.04" cy="77.39" rx="23.47" ry="24.9"/>
      <path class="cls-2" d="M159.5,108.73c14.18,6.3,24.3,22.22,24.3,40.74v13.2H108.28v-13.2c0-11.99,4.25-22.9,11.09-30.82,3.73-4.31,8.22-7.72,13.21-9.92"/>
      <path class="cls-3" d="M130.33,104.42c9.84,4.96,21.03,4.79,31.37,0l-.72,9.52-29.57-.38-1.08-9.14Z"/>
    </g>
    <g>
      <ellipse class="cls-1" cx="52.96" cy="77.58" rx="23.47" ry="24.9"/>
      <path class="cls-1" d="M66.42,108.91c14.18,6.3,24.3,22.22,24.3,40.74v13.2H15.2v-13.2c0-11.99,4.25-22.9,11.09-30.82,3.73-4.31,8.22-7.72,13.21-9.92"/>
      <path class="cls-3" d="M37.42,104.67c9.89,4.83,21.14,4.66,31.54,0l-.73,9.27-29.73-.37-1.09-8.9Z"/>
    </g>
    <g>
      <ellipse class="cls-1" cx="99.81" cy="61" rx="30.33" ry="32.16"/>
      <path class="cls-1" d="M117.2,101.48c18.32,8.14,31.4,28.71,31.4,52.64v17.05H51.02v-17.05c0-15.49,5.49-29.59,14.33-39.82,4.81-5.56,10.61-9.97,17.07-12.82"/>
      <path class="cls-3" d="M80.14,97.17c11.89,4.75,26.65,4.58,39.15,0l-.87,9.11-35.71-.37-2.56-8.75Z"/>
    </g>
    <polygon class="cls-3" points="94.76 105.24 89.11 152.75 98.73 167.62 108.28 152.87 102.92 105.53 94.76 105.24"/>
  </g>
  <polygon class="cls-3" points="51.02 131.39 40.33 112.86 61.72 112.86 51.02 131.39"/>
  <polygon class="cls-3" points="147.79 132.09 137.1 113.56 158.49 113.56 147.79 132.09"/>
</svg>