<?xml version="1.0" encoding="UTF-8"?>
<svg id="Layer_1" data-name="Layer 1" xmlns="http://www.w3.org/2000/svg" viewBox="0 0 200 200">
  <defs>
    <style>
      .cls-1, .cls-2 {
        fill: #caf0f8;
      }

      .cls-2 {
        stroke: #256d85;
        stroke-miterlimit: 10;
        stroke-width: 10px;
      }

      .cls-3 {
        fill: #256d85;
      }
    </style>
  </defs>
  <g id="icon_individuel" data-name="icon individuel">
    <g id="duotone-1">
      <g>
        <ellipse class="cls-1" cx="100" cy="61" rx="30.51" ry="32.66"/>
        <path class="cls-3" d="M100,33.33c14.07,0,25.51,12.41,25.51,27.66s-11.44,27.66-25.51,27.66-25.51-12.41-25.51-27.66,11.44-27.66,25.51-27.66m0-10c-19.61,0-35.51,16.86-35.51,37.66s15.9,37.66,35.51,37.66,35.51-16.86,35.51-37.66-15.9-37.66-35.51-37.66h0Z"/>
      </g>
      <path class="cls-2" d="M120.36,101.73c21.45,9.53,36.76,33.62,36.76,61.64v19.96H42.87v-19.96c0-18.14,6.43-34.65,16.78-46.63,5.64-6.51,12.43-11.67,19.99-15.01"/>
      <path class="cls-3" d="M77.9,97.33c13.92,5.26,29.75,5.08,44.37,0l-1.02,10.1-41.82-.41-1.53-9.69Z"/>
    </g>
  </g>
</svg>