<?xml version="1.0" encoding="UTF-8"?>
<svg id="Layer_1" data-name="Layer 1" xmlns="http://www.w3.org/2000/svg" viewBox="0 0 200 200">
  <defs>
    <style>
      .cls-1, .cls-2 {
        fill: #caf0f8;
      }

      .cls-2 {
        stroke: #256d85;
        stroke-miterlimit: 10;
        stroke-width: 10px;
      }

      .cls-3 {
        fill: #256d85;
      }
    </style>
  </defs>
  <g id="icon_mariage" data-name="icon mariage">
    <rect class="cls-3" x="88.44" y="68.82" width="72.23" height="118.25"/>
    <circle class="cls-2" cx="122.72" cy="34.86" r="23.29"/>
    <circle class="cls-2" cx="87.2" cy="36.22" r="23.29"/>
    <polygon class="cls-1" points="128.51 135.47 110 142.05 110 78.97 146.02 78.97 128.51 135.47"/>
    <path class="cls-2" d="M135.56,181.98c1.46-4.29,2.61-9.44,2.74-15.27,.52-24.05-16.78-40.82-21.21-44.88-1.74-1.56-12.13-11.17-12.15-26.55-.02-11.02,5.3-18.76,7.27-21.36H62.18c1.81,1.68,9.16,8.9,9.89,20.44,1.02,16.07-11.72,25.99-12.76,26.77-4.34,3.67-23.5,20.68-23.22,45.58,.07,5.79,1.17,10.93,2.63,15.27h96.84Z"/>
    <polygon class="cls-3" points="126.77 87.09 115.46 93.61 115.46 80.56 126.77 87.09"/>
    <polygon class="cls-3" points="122.34 87.09 133.64 93.61 133.64 80.56 122.34 87.09"/>
  </g>
</svg>